<svg width="620" height="774" viewBox="0 0 620 774" fill="none" xmlns="http://www.w3.org/2000/svg">
<path opacity="0.1" d="M444.833 766.601C490.546 783.513 546.199 768.968 593.729 747.755C742.998 681.113 851.744 554.609 938.145 425.728C969.43 379.061 999.141 330.337 1010.9 278.244C1034.85 172.208 972.394 62.4316 866.176 23.9645C830.055 10.8725 790.375 5.50189 750.631 2.5116C679.957 -2.81671 606.785 -0.703186 536.678 19.0302C486.681 33.1302 439.388 55.8157 394.026 80.8773C267.345 150.903 151.655 241.84 68.3508 352.922C31.8151 401.644 0.906426 456.571 0.0158033 512.787C-0.874822 569.003 35.9342 625.491 96.4968 635.05C121.535 638.999 148.021 634.889 173.859 630.659C211.903 624.423 250.463 617.866 288.072 620.586C326.925 623.416 377.458 638.526 384.542 675.442C392.042 715.079 399.177 749.709 444.833 766.601Z" fill="#FF572F"/>
<path opacity="0.1" d="M444.833 766.601C490.546 783.513 546.199 768.968 593.729 747.755C742.998 681.113 851.744 554.609 938.145 425.728C969.43 379.061 999.141 330.337 1010.9 278.244C1034.85 172.208 972.394 62.4316 866.176 23.9645C830.055 10.8725 790.375 5.50189 750.631 2.5116C679.957 -2.81671 606.785 -0.703186 536.678 19.0302C486.681 33.1302 439.388 55.8157 394.026 80.8773C267.345 150.903 151.655 241.84 68.3508 352.922C31.8151 401.644 0.906426 456.571 0.0158033 512.787C-0.874822 569.003 35.9342 625.491 96.4968 635.05C121.535 638.999 148.021 634.889 173.859 630.659C211.903 624.423 250.463 617.866 288.072 620.586C326.925 623.416 377.458 638.526 384.542 675.442C392.042 715.079 399.177 749.709 444.833 766.601Z" fill="black" fill-opacity="0.2"/>
</svg>
