<svg width="125" height="32" viewBox="0 0 125 32" fill="none" xmlns="http://www.w3.org/2000/svg">
<path fill-rule="evenodd" clip-rule="evenodd" d="M31.4461 0.508772C31.0972 0.16045 30.5741 0.0539023 30.1168 0.238003L1.09529 11.8565C0.649325 12.0342 0.347377 12.4549 0.321822 12.9343C0.296267 13.4137 0.551769 13.8642 0.976312 14.0883L12.0327 19.9262L17.8707 30.9785C18.0835 31.3818 18.5018 31.6344 18.9578 31.6349H19.0235C19.5038 31.6095 19.9252 31.3066 20.1025 30.8595L31.7209 1.838C31.904 1.37988 31.7958 0.856714 31.4461 0.508772ZM4.4799 13.1529L25.4645 4.75082L12.7178 17.5016L4.4799 13.1529ZM14.4532 19.2411L18.8061 27.4872L27.204 6.49441L14.4532 19.2411Z" fill="white"/>
<path d="M9.15269 21.0627L1.37833 28.837C1.04905 29.1439 0.913513 29.6059 1.02488 30.042C1.13624 30.4781 1.47676 30.8186 1.91283 30.93C2.34891 31.0413 2.811 30.9058 3.11782 30.5765L10.8922 22.8063C11.344 22.3213 11.3307 21.5656 10.862 21.0969C10.3933 20.6282 9.63763 20.6149 9.15269 21.0668V21.0627Z" fill="white"/>
<path d="M8.086 31.4791C8.56652 31.959 9.34497 31.959 9.82549 31.4791L13.5793 27.8114C13.9112 27.5082 14.0513 27.0482 13.9449 26.6115C13.8386 26.1748 13.5026 25.8308 13.0685 25.7142C12.6344 25.5976 12.1713 25.7268 11.8604 26.0514L8.10651 29.7191C7.86698 29.9479 7.72977 30.2636 7.72591 30.5948C7.72205 30.926 7.85186 31.2448 8.086 31.4791Z" fill="white"/>
<path d="M1.42349 24.3077C1.74521 24.3085 2.05447 24.1834 2.28503 23.959L6.03888 20.2913C6.49808 19.8119 6.49442 19.0548 6.0306 18.5799C5.56679 18.105 4.80995 18.0835 4.3199 18.5313L0.566059 22.199C0.206698 22.5487 0.0954179 23.0814 0.28475 23.5457C0.474082 24.0101 0.926167 24.3131 1.4276 24.3118L1.42349 24.3077Z" fill="white"/>
<path d="M61.984 26H56.512L47.36 12.112V26H41.888V3.376H47.36L56.512 17.392V3.376H61.984V26ZM82.8621 16.592C82.8621 17.04 82.8088 17.5307 82.7021 18.064H70.3181C70.3821 19.408 70.7235 20.3787 71.3421 20.976C71.9608 21.552 72.7501 21.84 73.7101 21.84C74.5208 21.84 75.1928 21.6373 75.7261 21.232C76.2595 20.8267 76.6115 20.304 76.7821 19.664H82.5741C82.3395 20.9227 81.8275 22.0533 81.0381 23.056C80.2488 24.0373 79.2461 24.816 78.0301 25.392C76.8141 25.9467 75.4595 26.224 73.9661 26.224C72.2168 26.224 70.6595 25.8613 69.2941 25.136C67.9501 24.3893 66.8941 23.3227 66.1261 21.936C65.3581 20.5493 64.9741 18.928 64.9741 17.072C64.9741 15.1947 65.3475 13.5733 66.0941 12.208C66.8621 10.8213 67.9288 9.76533 69.2941 9.04C70.6595 8.29333 72.2168 7.92 73.9661 7.92C75.7368 7.92 77.2941 8.28267 78.6381 9.008C79.9821 9.73333 81.0168 10.7573 81.7421 12.08C82.4888 13.3813 82.8621 14.8853 82.8621 16.592ZM77.3261 15.76C77.3475 14.5867 77.0275 13.712 76.3661 13.136C75.7261 12.5387 74.9261 12.24 73.9661 12.24C72.9635 12.24 72.1315 12.5387 71.4701 13.136C70.8088 13.7333 70.4355 14.608 70.3501 15.76H77.3261ZM96.6698 26L91.3258 18.416V26H85.8538V2.32H91.3258V15.312L96.6698 8.144H103.102L95.9018 17.072L103.262 26H96.6698ZM113.751 7.92C115.522 7.92 117.1 8.29333 118.487 9.04C119.895 9.76533 120.994 10.8213 121.783 12.208C122.594 13.5947 122.999 15.216 122.999 17.072C122.999 18.928 122.594 20.5493 121.783 21.936C120.994 23.3227 119.895 24.3893 118.487 25.136C117.1 25.8613 115.522 26.224 113.751 26.224C111.98 26.224 110.391 25.8613 108.983 25.136C107.575 24.3893 106.466 23.3227 105.655 21.936C104.866 20.5493 104.471 18.928 104.471 17.072C104.471 15.216 104.866 13.5947 105.655 12.208C106.466 10.8213 107.575 9.76533 108.983 9.04C110.391 8.29333 111.98 7.92 113.751 7.92ZM113.751 12.656C112.706 12.656 111.82 13.04 111.095 13.808C110.391 14.5547 110.039 15.6427 110.039 17.072C110.039 18.5013 110.391 19.5893 111.095 20.336C111.82 21.0827 112.706 21.456 113.751 21.456C114.796 21.456 115.671 21.0827 116.375 20.336C117.079 19.5893 117.431 18.5013 117.431 17.072C117.431 15.6427 117.079 14.5547 116.375 13.808C115.671 13.04 114.796 12.656 113.751 12.656Z" fill="white"/>
</svg>
